<?xml version="1.0" standalone="no"?>
<!DOCTYPE svg PUBLIC "-//W3C//DTD SVG 20010904//EN"
 "http://www.w3.org/TR/2001/REC-SVG-20010904/DTD/svg10.dtd">
<svg version="1.0" xmlns="http://www.w3.org/2000/svg"
 width="512.000000pt" height="512.000000pt" viewBox="0 0 512.000000 512.000000"
 preserveAspectRatio="xMidYMid meet">
<metadata>
Created by potrace 1.14, written by Peter Selinger 2001-2017
</metadata>
<g transform="translate(0.000000,512.000000) scale(0.100000,-0.100000)"
fill="#000000" stroke="none">
<path d="M1720 4680 c-112 -24 -233 -116 -279 -214 -12 -27 -50 -128 -83 -225
-33 -97 -69 -192 -78 -211 -24 -47 -65 -84 -120 -109 -43 -19 -65 -21 -400
-21 -195 0 -381 -4 -413 -10 -170 -27 -306 -159 -336 -324 -15 -83 -15 -2719
0 -2801 31 -169 164 -297 336 -325 78 -13 4348 -13 4426 0 172 28 305 156 336
325 15 78 15 2719 1 2796 -32 170 -166 301 -337 329 -32 6 -123 10 -202 10
-167 0 -206 9 -267 63 -57 50 -62 61 -135 275 -77 224 -99 268 -163 330 -61
60 -129 96 -210 111 -40 7 -333 11 -881 11 -817 0 -822 0 -849 -21 -30 -23
-35 -72 -12 -105 14 -18 38 -19 873 -24 932 -5 882 -2 955 -60 49 -38 68 -77
143 -291 41 -116 88 -233 106 -260 39 -62 97 -110 175 -146 56 -26 68 -28 259
-33 171 -5 207 -9 245 -27 63 -28 101 -63 130 -119 25 -48 25 -54 28 -326 l3
-278 -514 0 -514 0 -21 -23 c-29 -31 -29 -77 1 -105 23 -22 23 -22 535 -22
l513 0 -3 -1037 -3 -1038 -25 -49 c-28 -55 -66 -90 -130 -120 l-45 -21 -2200
0 c-1781 0 -2207 2 -2237 13 -65 23 -114 67 -144 129 l-29 58 -3 1033 -3 1032
514 0 514 0 21 23 c31 33 29 80 -4 106 -26 21 -36 21 -535 21 l-509 0 0 245
c0 138 5 266 11 295 17 78 63 139 133 175 l60 30 406 5 406 5 64 32 c75 37
146 104 183 171 14 26 53 128 87 227 71 207 86 238 132 282 45 44 94 62 184
70 58 5 81 11 95 26 24 26 24 68 0 98 -15 19 -29 23 -82 25 -35 2 -84 -1 -109
-6z"/>
<path d="M449 4559 c-46 -17 -50 -45 -47 -306 3 -220 5 -243 22 -262 26 -29
76 -28 104 2 20 22 22 34 24 222 l3 200 212 3 212 2 3 -204 c3 -184 5 -206 22
-225 26 -29 76 -28 104 2 21 23 22 30 22 271 0 142 -4 255 -10 266 -5 10 -24
23 -41 29 -40 14 -593 14 -630 0z"/>
<path d="M3011 4410 c-55 -12 -104 -44 -138 -93 -35 -51 -51 -176 -36 -283 13
-92 47 -147 113 -184 l45 -25 333 -3 c391 -4 414 0 480 72 22 24 45 61 51 82
14 52 14 237 0 285 -16 50 -61 105 -112 132 -41 21 -52 22 -367 24 -179 1
-345 -3 -369 -7z m683 -166 c23 -23 28 -54 25 -148 -6 -130 21 -121 -363 -121
-395 0 -366 -12 -366 143 0 84 3 109 17 124 15 17 39 18 344 18 284 0 330 -2
343 -16z"/>
<path d="M2392 3630 c-317 -40 -604 -177 -831 -395 -247 -238 -392 -521 -437
-855 -82 -617 237 -1210 803 -1494 260 -130 595 -175 898 -121 251 45 526 181
698 346 63 60 69 70 63 95 -4 16 -16 37 -28 47 -37 31 -72 22 -142 -37 -190
-162 -411 -267 -645 -307 -113 -20 -351 -15 -468 10 -298 62 -560 221 -747
453 -507 628 -335 1543 366 1945 392 225 884 225 1276 0 336 -193 565 -513
638 -894 26 -132 23 -359 -5 -490 -36 -170 -94 -311 -188 -457 -53 -83 -58
-119 -19 -153 50 -43 89 -23 154 80 249 394 299 871 137 1300 -147 392 -485
720 -880 855 -192 66 -456 95 -643 72z"/>
<path d="M2450 3229 c-229 -22 -446 -125 -618 -293 -277 -269 -382 -664 -276
-1034 83 -288 295 -536 567 -662 157 -73 362 -107 537 -89 246 25 452 121 628
293 229 222 341 527 311 845 -24 256 -132 477 -322 657 -224 213 -517 314
-827 283z m353 -183 c368 -109 624 -427 644 -803 l6 -103 -39 0 c-62 0 -213
35 -294 68 -132 52 -171 81 -205 147 -38 75 -115 152 -190 190 -66 34 -95 73
-147 205 -33 81 -68 232 -68 294 l0 39 103 -6 c66 -3 133 -14 190 -31z m-918
-836 c44 -11 127 -43 185 -72 103 -52 106 -54 135 -112 38 -76 115 -153 190
-191 66 -34 95 -73 147 -205 33 -81 68 -232 68 -294 l0 -39 -102 6 c-449 24
-811 386 -835 836 l-6 104 69 -6 c39 -4 106 -16 149 -27z"/>
<path d="M886 1386 c-228 -96 -287 -393 -113 -568 184 -183 485 -115 578 130
44 118 10 268 -82 361 -66 66 -136 95 -239 99 -72 2 -94 -1 -144 -22z"/>
</g>
</svg>
